<?xml version="1.0" standalone="no"?>
<!DOCTYPE svg PUBLIC "-//W3C//DTD SVG 20010904//EN"
 "http://www.w3.org/TR/2001/REC-SVG-20010904/DTD/svg10.dtd">
<svg version="1.0" xmlns="http://www.w3.org/2000/svg"
 width="16.000000pt" height="16.000000pt" viewBox="0 0 16.000000 16.000000"
 preserveAspectRatio="xMidYMid meet">
<metadata>
Created by potrace 1.11, written by Peter Selinger 2001-2013
</metadata>
<g transform="translate(0.000000,16.000000) scale(0.002614,-0.002614)"
fill="#000000" stroke="none">
<path d="M2805 6053 c-367 -32 -752 -140 -1085 -307 -928 -464 -1554 -1377
-1651 -2409 -17 -185 -7 -564 20 -741 134 -869 641 -1633 1396 -2107 828 -520
1916 -591 2818 -184 664 300 1217 853 1512 1514 124 276 200 550 241 866 24
182 24 562 0 740 -91 669 -366 1243 -821 1714 -509 525 -1155 840 -1869 910
-100 10 -464 13 -561 4z m812 -1103 c399 -146 523 -196 541 -216 31 -36 29
-79 -7 -115 -51 -50 -66 -46 -589 146 -261 96 -482 175 -490 175 -9 0 -229
-79 -491 -175 -305 -112 -490 -175 -514 -175 -47 0 -82 22 -96 61 -13 37 3 85
33 101 49 28 1034 387 1063 387 18 1 256 -81 550 -189z m-147 -345 c47 -24 64
-79 40 -126 -26 -47 -45 -49 -444 -49 l-376 0 -32 29 c-52 47 -39 125 27 152
11 4 186 8 388 8 310 1 373 -1 397 -14z m-1317 -255 c20 -22 27 -41 27 -70 l0
-40 885 0 885 0 0 29 c0 105 117 158 189 87 l26 -26 3 -381 3 -380 -35 -35
-34 -34 -1036 0 -1036 0 -32 29 -33 29 -3 359 c-2 244 0 370 8 396 23 80 126
101 183 37z m97 -1055 c29 -15 44 -44 49 -97 1 -5 442 -8 981 -8 1086 0 1035
3 1066 -64 15 -29 15 -39 4 -66 -7 -17 -22 -36 -34 -43 -16 -9 -286 -13 -1122
-17 l-1101 -5 -67 -60 c-159 -141 -165 -145 -213 -145 -75 0 -125 70 -93 130
5 10 78 81 162 157 267 243 254 233 299 233 22 0 53 -7 69 -15z m1551 -485
c50 -14 74 -43 74 -92 0 -31 -6 -45 -28 -64 l-28 -24 -750 0 -751 0 -29 29
c-51 51 -28 129 44 150 45 13 1422 14 1468 1z m350 -399 l29 -29 0 -385 c0
-322 2 -386 14 -396 12 -10 30 1 98 62 46 40 93 79 105 85 66 36 153 -9 153
-78 0 -22 -7 -46 -17 -58 -48 -55 -392 -357 -421 -369 -40 -17 -78 -8 -114 25
l-28 26 0 449 c0 425 -2 469 -27 497 -3 3 -445 7 -983 10 l-979 5 -30 29 c-43
42 -43 94 0 130 l31 26 1070 0 1070 0 29 -29z m-1163 -307 c21 -15 22 -21 22
-183 0 -116 4 -171 12 -179 9 -9 93 -12 316 -12 l304 0 29 -29 c33 -33 38 -74
13 -109 -31 -45 -44 -47 -364 -52 l-305 -5 -3 -174 c-1 -108 -7 -180 -13 -188
-8 -9 -38 -13 -94 -13 -56 0 -86 4 -94 13 -6 8 -12 80 -13 188 l-3 174 -305 5
c-320 5 -333 7 -364 52 -25 35 -20 76 13 109 l29 29 304 0 c223 0 307 3 316
12 8 8 12 64 12 185 0 153 2 173 18 182 28 17 144 13 170 -5z m-409 -60 c60
-50 34 -130 -50 -154 -45 -13 -294 -13 -341 0 -77 22 -101 98 -49 151 l29 29
190 0 c190 0 190 0 221 -26z m1092 -3 c52 -53 28 -129 -49 -151 -40 -11 -274
-14 -334 -4 -86 15 -119 106 -57 158 31 26 31 26 221 26 l190 0 29 -29z
m-1142 -647 c80 -16 109 -108 50 -158 -31 -26 -31 -26 -221 -26 l-190 0 -29
29 c-52 52 -33 120 41 150 28 11 299 15 349 5z m1105 -8 c70 -29 87 -97 37
-147 l-29 -29 -190 0 c-190 0 -190 0 -221 26 -41 35 -44 93 -5 129 33 31 41
32 222 34 111 1 162 -3 186 -13z"/>
<path d="M2180 3892 c0 -126 3 -162 16 -180 l15 -22 853 0 c814 0 854 1 869
18 14 16 17 44 17 180 l0 162 -885 0 -885 0 0 -158z"/>
<path d="M4520 181 c23 -6 25 -12 28 -69 4 -79 22 -72 22 8 0 53 2 59 23 63
12 2 -5 4 -38 5 -39 0 -51 -2 -35 -7z"/>
<path d="M4634 126 c2 -82 16 -99 17 -20 l0 59 22 -57 c11 -32 24 -58 28 -58
4 0 17 24 28 53 l20 52 0 -52 c1 -29 6 -53 11 -53 6 0 10 30 10 70 0 88 -19
94 -45 15 -11 -30 -21 -52 -24 -49 -4 3 -13 26 -22 52 -9 26 -23 48 -31 50
-12 2 -15 -9 -14 -62z"/>
</g>
</svg>
