<svg xmlns="http://www.w3.org/2000/svg" viewBox="0 0 113.82 314.69"><title>aikido-logo</title><g id="Layer_2" data-name="Layer 2"><g id="Layer_1-2" data-name="Layer 1"><path d="M93.22,162.48a2.9,2.9,0,0,1,.24.51,4.47,4.47,0,0,0,1.33,2,2.69,2.69,0,0,1,.51.69c.57,1.13,1.15,2.26,1.65,3.43a6.71,6.71,0,0,0,1.69,2.11c.81.79,1.54,1.67,2.31,2.5a5.12,5.12,0,0,0,1.22,1.22,6.74,6.74,0,0,1,2.49,2.29,25.74,25.74,0,0,1,3.23,5,8.35,8.35,0,0,1,.73,4.66c-.23,1.25-.58,2.47-.77,3.72a8.2,8.2,0,0,1-.85,2.78,15.43,15.43,0,0,1-4,4.38,20.23,20.23,0,0,1-11,4.28,24.51,24.51,0,0,1-8.46-.4,28.1,28.1,0,0,1-7.5-3,10.8,10.8,0,0,1-3.22-3.36,62.93,62.93,0,0,1-7-13.84,52.76,52.76,0,0,1-2-6.24,30.32,30.32,0,0,1-.64-9.34c.11-1.73.16-3.46.33-5.18.25-2.56.56-5.12.89-7.68.21-1.62.43-3.24.76-4.83s.86-3.28,1.22-4.93c.75-3.4,2.21-6.55,3.3-9.82a13.16,13.16,0,0,0,.66-6.21,13.06,13.06,0,0,0-1.26.41,33.51,33.51,0,0,1-6.76,2.2,34.81,34.81,0,0,0-6,2.17c-2.44,1-4.89,2-7.36,2.89a54.43,54.43,0,0,0-6.63,3.08q-2.76,1.47-5.54,2.9a16.06,16.06,0,0,0-4.48,3.44c-1.55,1.67-3,3.41-4.57,5.09-.92,1-1.87,2-2.83,3-.63.63-1.52.49-2.29.66-.15,0-.4-.2-.55-.36a20.59,20.59,0,0,1-1.89-2.11c-.69-1-1.25-2-1.86-3.08-.15-.25-.26-.53-.41-.79-.36-.64-.37-.46,0-1.46h1s-.06-.77-.09-1.19l.86.11L19.53,143c.78,1.12,1.79.72,2.66.38,1.64-.64,3.27-1.32,4.84-2.12,2.36-1.19,4.63-2.55,7-3.73,4.08-2,8.16-4.09,12.31-6,3.23-1.45,6.55-2.74,9.9-3.93,4.14-1.48,8.34-2.78,12.51-4.16A5.15,5.15,0,0,0,71,122.27a3.45,3.45,0,0,1,1.22-.53c2.11-.85,3.62.33,5.11,1.54a2.4,2.4,0,0,1,.76,1.75,1.28,1.28,0,0,1-.26.79,9.71,9.71,0,0,0-1.56,3.12,3.07,3.07,0,0,0-.19,1,4.51,4.51,0,0,1-.52,2.06c-.71,1.67-1.44,3.34-2.05,5.05a19.4,19.4,0,0,0-1.35,5,22.23,22.23,0,0,1-.31,2.72,31.53,31.53,0,0,0-.27,8.77,16.08,16.08,0,0,1,0,2.24,52.16,52.16,0,0,0,.38,10.35c.2,1.55.32,3.12.55,4.67a30.65,30.65,0,0,0,2,7.54,46.4,46.4,0,0,0,2.75,5.18A5.15,5.15,0,0,0,78.74,185a12.35,12.35,0,0,0,8.76,2,11.37,11.37,0,0,0,6-2.49,6.06,6.06,0,0,0,2.3-3.42,18,18,0,0,0-.62-12.19c-.66-2-1.33-4-2-5.93a2.22,2.22,0,0,1-.06-.37Z"/><path d="M50.31,0a3,3,0,0,0,.77,0,1.53,1.53,0,0,1,1.6.5c.66.76,1.24,1.58,1.84,2.39.14.18.17.46.34.59,1,.73,1.48,1.87,2.3,2.73a2,2,0,0,1,.63,1.47c0,.68.16,1.36.19,2s0,1.55,0,2.33a11.34,11.34,0,0,1-.17,2A31.54,31.54,0,0,1,57,17.21c-.2.61-.51,1.19-.81,1.88.32.22.62.45.95.63,2,1.11,4,2.17,6,3.34,2.21,1.31,4.4,2.67,6.54,4.09A53,53,0,0,0,79,32.25c4.92,2,9.83,4,14.75,6,2.63,1.06,5.29,2,7.94,3,3.33,1.25,6.52,2.79,9.72,4.32.55.27.58.69.6,1.31a11,11,0,0,1-1.45.34c-.61.06-1.24,0-1.86,0a21.5,21.5,0,0,0-6.43,1.1,4.81,4.81,0,0,0-1.19.65,11.36,11.36,0,0,1-7.8,1.77,52,52,0,0,1-9.23-2.42,59.33,59.33,0,0,1-8.29-3.68,23.36,23.36,0,0,1-2-1.28c-1.66-1.09-3.36-2.13-5-3.28a17.1,17.1,0,0,1-2.21-2.05c-1.44-1.47-2.83-3-4.26-4.46C60.62,31.78,58.82,29.88,57,28c-1.17-1.17-2.43-2.27-3.63-3.41a.78.78,0,0,0-1.12-.05c-1.87,1.24-3.79,2.39-5.63,3.66-1.31.9-2.56,1.9-3.79,2.92a21.5,21.5,0,0,1-5.07,3.28A56.24,56.24,0,0,1,31,37c-1.31.38-2.57.91-3.87,1.35-.58.2-1.2.3-1.79.47-.84.24-1.68.5-2.52.75-2,.6-4,1.15-6,1.82a74.5,74.5,0,0,0-8.5,3.42c-1.82.87-3.66,1.7-5.49,2.56-.94.44-1.87.9-2.87,1.28.15-.11.3-.24.47-.34,2.35-1.46,4.68-3,7.08-4.35,3-1.73,5.75-3.71,8.55-5.67a103.7,103.7,0,0,0,12.8-11.06c2.45-2.39,5-4.72,7.46-7.08a57.09,57.09,0,0,0,7.6-8.28,23.24,23.24,0,0,0,3.93-9.39c.15-.85.4-1.09,1.25-1.15.44,0,.73-.16.83-.65A2.89,2.89,0,0,1,50.31,0Z"/><path d="M99.51,286.52l1.29-.61a1.11,1.11,0,0,1-.17,1.13,34.65,34.65,0,0,1-3.28,4.71c-.65.72-1.33,1.41-2,2.12a1,1,0,0,0-.19.22c-1.2,2.4-3.37,4-4.8,6.25a15.1,15.1,0,0,1-2.7,3.29c-1.62,1.41-3.29,2.77-5,4.11-.84.67-1.75,1.25-2.62,1.88a26.36,26.36,0,0,1-14.08,5,32.51,32.51,0,0,1-10.37-1.05,80.38,80.38,0,0,1-9.5-3.3,8.4,8.4,0,0,1-1.78-1c-2.41-1.73-4.82-3.47-7.19-5.26a72.62,72.62,0,0,1-8.47-7.4,19.85,19.85,0,0,0-4.55-3.52c-.6-.34-1.18-.7-1.77-1a11.45,11.45,0,0,0-6.51-1.38c-.65,0-1.3,0-2,0-1.76-.06-3.52-.14-5.28-.18a4.2,4.2,0,0,1-2.77-1.14,7.88,7.88,0,0,1,.88-.14,9,9,0,0,1,.92.05l-.48-1.42.11,0,.54.79.46-1.79.45,1c.73,0,1.51,0,2.27-.14,1.9-.27,3.8-.6,5.7-.91a17.59,17.59,0,0,1,9.14,1c2.26.85,4.54,1.66,6.72,2.69a37.65,37.65,0,0,1,6.62,4.33,34.43,34.43,0,0,0,10.08,5.53,30.46,30.46,0,0,0,8.63,1.63,29.53,29.53,0,0,0,9.49-1.06,31.74,31.74,0,0,0,6-2.52,64.07,64.07,0,0,0,12.28-8.85c1.2-1.08,2.56-2,3.77-3,2.24-1.95,4.46-3.92,6.62-6,1-1,1.86-2.1,2.79-3.14a38.63,38.63,0,0,1,3.59-3.86,29.52,29.52,0,0,0,3.34-3.81,54.28,54.28,0,0,0,6-8.78q.8-1.45,1.63-2.89c0-.08.15-.12.3-.23a2.8,2.8,0,0,1,0,1.53,13.07,13.07,0,0,1-.87,2.48c-.73,1.53-1.55,3-2.31,4.52a2.85,2.85,0,0,0-.39,1.19,4.3,4.3,0,0,1-.84,2.35l-3.2,5a1.77,1.77,0,0,0-.27.63c.48-.15.67-.6.94-.95a8.34,8.34,0,0,1,.92-1.09,12.35,12.35,0,0,1-1.7,3.68c-.78,1-1.61,1.9-2.31,2.92a8.21,8.21,0,0,0-1.52,3A2.91,2.91,0,0,1,101,285a4.93,4.93,0,0,0-1.42,1.56,1.28,1.28,0,0,0-.92,1.13C98.95,287.32,99.53,287.15,99.51,286.52Z"/><path d="M55.43,38.51a1.16,1.16,0,0,0,1.39.09,2.69,2.69,0,0,1,2.76.31A11.9,11.9,0,0,0,62,40.16a8.17,8.17,0,0,1,2.9,1.93c.68.7.81,1.1.26,1.87a2.36,2.36,0,0,0-.4,1.36,2.61,2.61,0,0,1-.71,2,9,9,0,0,0-1,1.54,1.51,1.51,0,0,1-1.79.69,9.27,9.27,0,0,0-3.2-.16c-1.44,0-2.87,0-4.31.07a21.9,21.9,0,0,0-8.15,1.79,30.5,30.5,0,0,0-5,2.8,11.44,11.44,0,0,0-2.89,3.15c-.15.21-.26.46-.42.66-1.38,1.71-1.35,3.67-1,5.67.08.41.22.8.36,1.28a2.32,2.32,0,0,0,.46-.31,47.28,47.28,0,0,1,7.67-7.11c.57-.44,1.13-.88,1.69-1.34a18.22,18.22,0,0,1,6.76-3.19,1.1,1.1,0,0,1,.48,0,4.89,4.89,0,0,1,4,2.66c.78,1.68,1.58,3.35,2.26,5.07A87.61,87.61,0,0,1,62.9,71c.18.69.46,1.35.69,2,.15.46.31.93.43,1.4a1.55,1.55,0,0,1-.35,1.44,5.23,5.23,0,0,0-1,1.88A2.07,2.07,0,0,1,61,79.44a4,4,0,0,1-2.48,0,1.24,1.24,0,0,0-1.43.34,9.07,9.07,0,0,1-1,.9,1.35,1.35,0,0,1-1.64.11,10.21,10.21,0,0,1-1-.59,2.11,2.11,0,0,0-1.94-.37,18,18,0,0,0-5.74,2.4c-.57.38-1.18.71-1.71,1.14A10,10,0,0,0,42.23,85a3.22,3.22,0,0,1-5.3-.32,13.86,13.86,0,0,0-1.69-2.25,10.15,10.15,0,0,1-1.5-2.62,3.23,3.23,0,0,0-.49-.83,11.42,11.42,0,0,1-2.13-2.88,4.45,4.45,0,0,0,1.14-2.79,52.74,52.74,0,0,1,1.18-6.12A12.29,12.29,0,0,0,34,64.12a12.5,12.5,0,0,1,2.26-6.07c.56-.88,1.2-1.71,1.8-2.56l.57-.81c-1,.14-1.75.3-2.55.36s-1.56,0-2.38,0a18.18,18.18,0,0,1-3.15-4.52,18.88,18.88,0,0,0-1.24-2.1c-.37-.64-.76-1.28-1.07-2s0-1.44.11-2.25l1,.34-.46-1.32,2.33.88-.61-1.38a4,4,0,0,1,.91.25,4,4,0,0,0,3,.22c3-.71,6-1.51,9-2.26a45.17,45.17,0,0,1,7.07-1.48c.49,0,1-.06,1.47-.09A5.41,5.41,0,0,0,55.43,38.51Zm-15,36.05a9.82,9.82,0,0,0,1-.24c3.6-1.23,7.2-2.49,10.8-3.71.92-.31,1.56-.7,1.61-1.84,0-.86.51-1.7.57-2.56a38.35,38.35,0,0,0-.16-7.51c-.25-1.92-1.68-2.87-3.13-3.53a1.19,1.19,0,0,0-.67,0,5,5,0,0,0-2.91,1.46Q44.42,60,41.22,63.48c-.4.43-.82.84-1.24,1.25a8.56,8.56,0,0,0-1.72,2.47,2.41,2.41,0,0,0,0,2.08A24.76,24.76,0,0,1,40.13,74,2.63,2.63,0,0,0,40.43,74.56Z"/><path d="M54.18,255.8l1-.26,5.94-1.61a4.38,4.38,0,0,1,.68-.1c2.19-.23,2.19-.23,4,.88a1.52,1.52,0,0,1,.52,2.12,5,5,0,0,1-.6,1.09,5.46,5.46,0,0,1-1.41,1,6.16,6.16,0,0,1-1.75.59,9.24,9.24,0,0,0-5.46,3.35,2.88,2.88,0,0,0-.78,2.18c.46,0,.93.06,1.4.06,1.79,0,3.59,0,5.38,0a6.14,6.14,0,0,1,3.7,1.61c1,.76.9,1.79.35,3-.38.81-1.08,1.15-1.63,1.69a1.67,1.67,0,0,1-.91.29,11.15,11.15,0,0,0-5.36,2.2,25.05,25.05,0,0,1-2.18,1.3,5.37,5.37,0,0,0-2.44,3.29c-.31,1.08,0,1.58,1.05,1.73q2.42.34,4.86.56c.61.05,1.23-.06,1.85-.07a1.76,1.76,0,0,1,.76.15q3.12,1.53,6.21,3.09a5.14,5.14,0,0,1,.73.48,2.91,2.91,0,0,1,1,4.08c-.22.47-.45.94-.68,1.41-.8,1.6-1.52,2-3.22,1.55a3.41,3.41,0,0,0-1.73-.08,1,1,0,0,1-.89-.26c-1-.77-2-1.5-3-2.23a12.68,12.68,0,0,0-4.7-1.84,13.94,13.94,0,0,1-5-2.11,3.45,3.45,0,0,1-1.35-1.5.66.66,0,0,0-.93-.43,1.07,1.07,0,0,1-1.15-.33c-.38-.35-.81-.65-1.18-1a1.57,1.57,0,0,1-.39-.65,2.11,2.11,0,0,0-1.15-1.46c0-.49,0-.94.1-1.39a1.38,1.38,0,0,1,.19-.64,2.79,2.79,0,0,0,.46-1.67,91.68,91.68,0,0,1,3.11-21c.75-3,1.62-5.91,2.56-8.82a23.75,23.75,0,0,1,1.95-4.14,43.26,43.26,0,0,0-2,6.32,46.38,46.38,0,0,1,3.44-7.45l-.55,2,.19.07,1.4-3.07h.1l-.15,1.13a17.2,17.2,0,0,0,1.48-2.57,9.85,9.85,0,0,1-.15,2.41c-1,2.66-1.68,5.4-2.49,8.11a3.26,3.26,0,0,0,0,.63c.38-.53.63-.89.9-1.24a55.52,55.52,0,0,1,5.05-6,14.6,14.6,0,0,1,2.6-2.06,7.38,7.38,0,0,1,2.2-.73,2.23,2.23,0,0,1,1.83.5,12.32,12.32,0,0,1,4,5.76,71.88,71.88,0,0,1,3.13,11c.56,2.45,1.18,4.88,1.82,7.31a58.61,58.61,0,0,1,1.51,8.76c.19,1.78.37,3.57.63,5.34a12.83,12.83,0,0,0,.67,2.24c.27.78.56,1.48-.14,2.26a8.24,8.24,0,0,0-.92,1.81c-.37.72-.79,1.31-1.77,1.26a15.59,15.59,0,0,0-1.71.26,1.73,1.73,0,0,1-1.52-.73,9.8,9.8,0,0,1-2-3.31c-.41-1.47-.89-2.93-1.34-4.39-.1-.32-.16-.59.27-.79.16-.07.23-.51.22-.77-.06-1.43-.08-2.88-.25-4.3-.58-5-1.19-10-1.85-15-.33-2.45-.74-4.9-1.26-7.32a19.35,19.35,0,0,0-1.34-3.77,6.23,6.23,0,0,0-1.33-1.79,1.81,1.81,0,0,0-2.49-.15,14.21,14.21,0,0,0-1.8,1.51c-1.22,1.23-2.46,2.44-3.55,3.77A12,12,0,0,0,54.13,255c0,.19,0,.39-.06.58S54.12,255.66,54.18,255.8Zm-1.46,13.65c-.08.15-.16.23-.15.31,0,2.28,0,4.55.08,6.83a3.23,3.23,0,0,0,.25.78,3.51,3.51,0,0,0,.42-.45,12.46,12.46,0,0,1,2.79-3,11.55,11.55,0,0,0,2.09-2.34C56.11,271.32,54.23,270.89,52.73,269.45Zm5-9.75c-.92-.34-1.42.56-2.24.55a7.62,7.62,0,0,0-2.25.74c-.08,1.48-.55,3,0,4.61Z"/><path d="M24.36,125.1a7.5,7.5,0,0,0-.92.38c-2,1.19-4.27,1.11-6.47.86a4.11,4.11,0,0,1-3.13-2.55,1.13,1.13,0,0,1,.09-.84,20.14,20.14,0,0,1,1.27-2.51c1.18-1.84,2.44-3.62,3.65-5.44,1.79-2.68,3.53-5.41,5.39-8,.47-.66,1.24-1.11,1.63-1.89.06-.11.27-.15.38-.21l.77,1c.05,0,.17,0,.17-.07v-1c1,.54,1,1.08,1.32,1.7q1,1.88,2.08,3.74a4.74,4.74,0,0,0,.42.55c.65-.37.36-1.09.65-1.56l1.41.8.07-.81c.07,0,.16,0,.18,0a1.24,1.24,0,0,0,1.56.39q4.93-1.44,9.87-2.81A60.34,60.34,0,0,1,52.86,105a5.9,5.9,0,0,0,1.26-.46c.12,0,.23-.16.35-.17,1.12-.08,2.24-.15,3.37-.18.19,0,.39.2.57.34,1,.81,2,1.63,3.06,2.44a3.45,3.45,0,0,1,1.13,1.56,1.6,1.6,0,0,1-.31,1.78,17.42,17.42,0,0,1-2.37,2.43,1.74,1.74,0,0,1-2.24.25c-1.47-1.36-3.11-.93-4.72-.63a28.91,28.91,0,0,0-3.27,1,10.08,10.08,0,0,1-1.2.41c-2.55.45-4.76,1.74-7,2.9A29.73,29.73,0,0,0,37.79,119c-1.15.83-2.3,1.47-3.79,1a2.41,2.41,0,0,0-.84.07c-.47-.81-1.41-1.38-1.46-2.5,0-.12-.12-.23-.16-.35-.18-.49-.35-1-.53-1.51,0,0-.09,0-.11.07-.52,1.5-1.62,2.67-2.32,4.06-.18.35-.4.67-.56,1a9.66,9.66,0,0,1-2.87,3.51c.19.29.42.74.49.72.48-.17.87.23,1.31.13s.76-.17,1.14-.26c3.94-1,7.81-2.31,11.66-3.63,5-1.71,9.9-3.48,15-4.87.47-.13.93-.32,1.4-.44a1.78,1.78,0,0,0,1.07-.62,1,1,0,0,1,1.12-.35,2.87,2.87,0,0,0,1.25,0,2.66,2.66,0,0,1,1.8.25,15,15,0,0,1,1.55.82,1.87,1.87,0,0,1,.06,3.13A34.27,34.27,0,0,1,59,122.42a31.18,31.18,0,0,1-7.16,3.74,21.58,21.58,0,0,0-4.46,2.18,9.66,9.66,0,0,1-2,1c0-.06,0-.15.09-.18l4.85-3.48a15.77,15.77,0,0,0,3.61-3.58,6.12,6.12,0,0,0-.63,0A11.64,11.64,0,0,0,48.4,124a4,4,0,0,0-1.12,1.08,8.79,8.79,0,0,1-3.69,2.64c-1.51.76-3.1,1.38-4.58,2.19-1.28.7-2.45,1.61-3.69,2.39-1.4.89-2.79,1.81-4.25,2.59a15.78,15.78,0,0,1-2.82,1,.83.83,0,0,1-.68-.23,14.49,14.49,0,0,1-1.73-2c-.58-.89-1-1.88-1.52-2.82-.17-.32-.38-.61-.54-.93a13.65,13.65,0,0,1-.76-1.67,1.15,1.15,0,0,1,.64-1.54c.8-.23.79-.7.71-1.31C24.37,125.33,24.37,125.24,24.36,125.1Z"/><path d="M23.7,186.65l1.36-1.28c.43-.41,1.18-.6.87-1.49-.05-.15.31-.47.52-.67a26,26,0,0,0,3-3.55c.68-.95,1.6-1.72,2.35-2.62.94-1.12,1.84-2.29,2.72-3.46.59-.78.6-.85-.19-1.49-1.45-1.16-2.9-2.33-4.43-3.37s-3-1.84-4.53-2.72a3.59,3.59,0,0,1-1.56-1.42c-.42-.83-.78-1.68-1.17-2.52l.2-.12.78,1.06.1-.06-.43-1.26.77.44.12-.45.78.33-.32-1.28c.48.16.73.82,1.43.6l-.3-.72c5,.37,9.32,2.36,13.52,5.05.2-.38.37-.64.49-.93a30.84,30.84,0,0,0,2.38-9.84c0-.72.16-1.43.16-2.14s.54-1.12.83-1.67c0-.08.28-.06.43-.08a1,1,0,0,0,1-1.26l1.75.36-.15-.6a.56.56,0,0,1,.16,0,5.41,5.41,0,0,1,2.85,1.77c.4.45.94.74,1.39,1.18,1.16,1.15,1.91,2.6,3,3.8a3.1,3.1,0,0,1,.64,2.64,23.51,23.51,0,0,1-1.31,4.89,12.23,12.23,0,0,1-3.28,5c-.69.64-1.41,1.26-2.1,1.9-.28.26-.54.55-.84.86a6.41,6.41,0,0,0,.38.6,35.86,35.86,0,0,1,4.73,7.63,10.65,10.65,0,0,0,1.4,1.87c.28.36.61.69.85,1.07a2.94,2.94,0,0,1,.39,1.85c-.08,1.39-1,2.19-1.81,3.1a3.58,3.58,0,0,1-2.58,1.2,3.18,3.18,0,0,1-1.88-.39c-.84-.5-1.74-.88-2.58-1.37a3.79,3.79,0,0,1-1-.89c-.81-1-1.62-2-2.35-3.11C41.06,181.55,40,180,39,178.38a.62.62,0,0,0-1-.23c-1,.6-1.93,1.2-2.89,1.82-2.21,1.42-4.43,2.84-6.63,4.28q-1.84,1.2-3.63,2.47C24.52,187,24.24,186.91,23.7,186.65Z"/><path d="M43.72,218.36l-.56-2.17a4.56,4.56,0,0,0,2.6.8l-.41-.66.1-.15c.6.23,1.22.41,1.79.69a17.86,17.86,0,0,1,4.52,3.23c.83.79,1.65,1.58,2.46,2.38.57.57.64.58,1.3.08,1.6-1.23,3.19-2.49,4.81-3.69a38.56,38.56,0,0,1,4.22-2.73,2.3,2.3,0,0,1-.28.38c-1.73,1.54-3.52,3-5.16,4.63a7.59,7.59,0,0,0-1.75,2.68,3,3,0,0,0,.41,3.22A16.63,16.63,0,0,1,59.12,229,1.2,1.2,0,0,1,59,230.7a5.43,5.43,0,0,0-.36.45s0,.13,0,.27a1.42,1.42,0,0,0,.43,0c3.45-1.43,6.91-2.86,10.35-4.33a12.36,12.36,0,0,0,2-1.2c.59-.4,1.14-.87,1.72-1.29a1,1,0,0,1,.62-.21,3.55,3.55,0,0,0,2.21-.61c.66-.33.61-.33,1.24.15s1.35.89,2,1.34a10.13,10.13,0,0,1,3,2.4,1.86,1.86,0,0,1,.14,2,18,18,0,0,1-.95,1.6,1.25,1.25,0,0,1-.51.41c-.86.39-1.72.78-2.6,1.11a1.3,1.3,0,0,1-.92-.05c-.88-.42-1.72-.91-2.57-1.39a8.08,8.08,0,0,1-1.14-.75,2.94,2.94,0,0,0-2.87-.42A47.37,47.37,0,0,0,63.1,233c-3.9,1.89-7.74,3.89-11.62,5.81-1.63.81-3.33,1.5-5,2.28a21.8,21.8,0,0,0-5.41,3.65c-1.08,1-2.07,2.07-3.1,3.11a3.11,3.11,0,0,1-2.51,1.06A3,3,0,0,1,33,246.81c-.29-.93-.55-1.87-.8-2.82-.13-.5.23-.76.6-.86a2.71,2.71,0,0,0,1.46-1,6.1,6.1,0,0,1,1.7-1.39,1.15,1.15,0,0,1,1.37-.08,1.17,1.17,0,0,0,1.37,0l4.54-2.06c.59-.27,1.18-.54,1.76-.83.38-.19.73-.41,1.1-.62.11-.07.23-.21.32-.2.69.1,1.19-.41,1.81-.54a1,1,0,0,0,.83-.53c.12-.24.6-.33.93-.44a13.48,13.48,0,0,0,1.56-.48,9.19,9.19,0,0,0,1.3-.93c-1.94-.7-3.19-2.23-4.48-3.67a29.71,29.71,0,0,1-6-10.64c-.2-.61-.31-1.25-.5-2Z"/><path d="M14.1,264.83l.23.68c.26.75.34.85,1.14.64,1.86-.5,3.69-1.09,5.54-1.61a21.82,21.82,0,0,1,6.56-.83.23.23,0,0,1,.1,0c1.11.61,2.39.9,3.32,1.82a1.36,1.36,0,0,1,.06,1.77,25.29,25.29,0,0,1-4.35,4.87c-.45.42-.93.81-1.39,1.22a4.31,4.31,0,0,0-.37.47h.8l4.2.17a2.17,2.17,0,0,1,1.74.95,1.39,1.39,0,0,1-.19,1.85c-.93.76-1.89,1.49-2.83,2.25a15.75,15.75,0,0,1-5,2.36c-1.84.65-3.73,1.15-5.59,1.76-1.33.43-2.64.93-4,1.39a2.53,2.53,0,0,1-1.15.19c1.79-.92,3.59-1.82,5.38-2.75q3.29-1.72,6.55-3.5a8.21,8.21,0,0,0,1.5-1.09,5.92,5.92,0,0,0,.74-1c-.2-.17-.29-.29-.39-.32a11.52,11.52,0,0,0-5-.46,16.68,16.68,0,0,1-2.25.14c.54-1,1-1.85,1.44-2.69.56-1,1.16-2,1.71-3a9,9,0,0,0,.46-1.28c-1.81.24-3.23.78-4.1,2.33-.35.62-.71,1.24-1.12,1.82A2.29,2.29,0,0,1,15,274a5.5,5.5,0,0,1-1.89-1.33c-1-1.13-1.82-2.37-2.69-3.59a1.14,1.14,0,0,1,.54-1.86,3.71,3.71,0,0,0,2-1.84C13.17,264.9,13.65,264.93,14.1,264.83Z"/><path d="M60.92,226.28c.93-.81,1.89-1.59,2.79-2.43a14.53,14.53,0,0,0,1.88-2c1-1.39,2-2.84,2.9-4.3a6.39,6.39,0,0,0,1-3.27l-.67-.33a.72.72,0,0,1,.68-.69,3.12,3.12,0,0,0,1.12-.24c.25-.16.34-.59.54-1l1.48.61.14-.58,1.56.12.14-.62c.38.36.69.62,1,.93s.75.9,1.12,1.35a.88.88,0,0,1,.18.23,24.69,24.69,0,0,1,1,3,3.81,3.81,0,0,1-.15,1.91,5.77,5.77,0,0,1-2.18,2.94c-1.17.82-2.39,1.59-3.59,2.37a2.07,2.07,0,0,1-.8.34c-1.68.22-3.36.39-5,.62-1,.14-2,.32-3,.54-.69.16-1.36.42-2,.63Z"/><path d="M18.64,249.08,18.09,248c.9.09,1.8.16,2.7.27a8,8,0,0,1,3.68,1.48,18.77,18.77,0,0,0,1.93,1.15,7,7,0,0,1,2.28,2,1.18,1.18,0,0,1,.26.61,5.14,5.14,0,0,1-1.23,3.91,3.75,3.75,0,0,1-2,.88,6.29,6.29,0,0,1-2.12-.21,2.86,2.86,0,0,1-1.05-.5,1.23,1.23,0,0,0-1.54,0c-.7.47-1.43.91-2.08,1.44s-1.34,1.24-2,1.86a1.82,1.82,0,0,1-.87.49,5.3,5.3,0,0,0,.36-.63c.3-.75.58-1.5.88-2.26.19-.48.37-1,.58-1.44.27-.63.59-1.23.85-1.86a1.06,1.06,0,0,0-.35-1.3,9.49,9.49,0,0,1-2.46-3.14c-.16-.35-.31-.7-.45-1,.64-.6,1.29-.39,2-.19l-.16-.86,1.19.59Z"/></g></g></svg>