<svg xmlns="http://www.w3.org/2000/svg" viewBox="0 0 182.02 239.41"><defs><style>.cls-1{fill:#c1272d;}</style></defs><title>prairie-aikikai-logo</title><g id="Layer_2" data-name="Layer 2"><g id="Layer_1-2" data-name="Layer 1"><path d="M9.37,213.9A4.13,4.13,0,0,1,8,217.25a5.84,5.84,0,0,1-3.87,1.18H2.93l0,4.81-2.87,0L0,209.75l4.32,0a5.75,5.75,0,0,1,3.75,1A3.86,3.86,0,0,1,9.37,213.9Zm-6.46,2.19h.94a3.14,3.14,0,0,0,2-.54A1.83,1.83,0,0,0,6.48,214a1.88,1.88,0,0,0-.56-1.49,2.58,2.58,0,0,0-1.73-.47H2.88Z"/><path d="M17.48,218l0,5.19-2.87,0-.1-13.53,3.94,0a6.74,6.74,0,0,1,4.09,1,4,4,0,0,1,.7,5.17,4.35,4.35,0,0,1-1.85,1.47q3.09,4.54,4,5.86l-3.18,0L19,217.95Zm0-2.33h.92a3.54,3.54,0,0,0,2-.47,1.62,1.62,0,0,0,.64-1.43,1.48,1.48,0,0,0-.67-1.36,4,4,0,0,0-2.05-.39h-.87Z"/><path d="M38.09,223l-1-3.21-4.93,0-1,3.23-3.09,0,4.68-13.62,3.51,0L41.18,223Zm-1.71-5.61Q35,213,34.82,212.45t-.25-.91q-.3,1.19-1.71,5.87Z"/><path d="M45.54,222.94l-.1-13.53,2.87,0,.1,13.53Z"/><path d="M57.29,217.67l0,5.19-2.87,0-.1-13.53,3.94,0a6.74,6.74,0,0,1,4.09,1,4,4,0,0,1,.7,5.17,4.35,4.35,0,0,1-1.85,1.47q3.09,4.54,4,5.86l-3.18,0-3.27-5.17Zm0-2.33h.92a3.54,3.54,0,0,0,2-.47,1.62,1.62,0,0,0,.64-1.43,1.48,1.48,0,0,0-.67-1.36,4,4,0,0,0-2.05-.39h-.87Z"/><path d="M69.62,222.77l-.1-13.53,2.87,0,.1,13.53Z"/><path d="M86.34,222.65l-7.79.06-.1-13.53,7.79-.06,0,2.35-4.92,0,0,3,4.58,0,0,2.35-4.58,0,0,3.49,4.92,0Z"/><path d="M107.67,222.49l-1-3.21-4.93,0-1,3.23-3.09,0,4.68-13.62,3.51,0,4.89,13.55ZM106,216.88q-1.39-4.37-1.57-4.94t-.25-.91q-.3,1.19-1.71,5.87Z"/><path d="M115.11,222.44l-.1-13.53,2.87,0,.1,13.53Z"/><path d="M134.92,222.29l-3.26,0-3.59-5.67-1.21.88,0,4.83-2.87,0-.1-13.53,2.87,0,0,6.19,1.12-1.6,3.63-4.62,3.18,0-4.68,6Z"/><path d="M139.27,222.26l-.1-13.53,2.87,0,.1,13.53Z"/><path d="M159.08,222.12l-3.26,0-3.59-5.67-1.21.88,0,4.83-2.87,0-.1-13.53,2.87,0,0,6.19,1.12-1.6,3.63-4.63,3.18,0-4.67,6Z"/><path d="M171.71,222l-1-3.21-4.93,0-1,3.23-3.09,0,4.68-13.62,3.51,0L174.8,222ZM170,216.41q-1.39-4.37-1.57-4.94t-.25-.91q-.3,1.19-1.71,5.87Z"/><path d="M179.16,222l-.1-13.53,2.87,0L182,222Z"/><path d="M38.74,234.86a4.39,4.39,0,0,1-1.19,3.35,4.86,4.86,0,0,1-3.48,1.18l-2.47,0-.06-8.81,2.72,0a4.51,4.51,0,0,1,3.28,1.11A4.23,4.23,0,0,1,38.74,234.86Zm-1.52.06q0-3.17-3-3.14H33l0,6.4h1Q37.24,238.15,37.22,234.92Z"/><path d="M51.21,239.27l-5,0-.06-8.81,5,0v1.22l-3.54,0,0,2.4,3.32,0v1.21l-3.32,0,0,2.77,3.54,0Z"/><path d="M63.73,236.78a2.22,2.22,0,0,1-.84,1.85,3.7,3.7,0,0,1-2.34.69,5.59,5.59,0,0,1-2.45-.45v-1.36a6.64,6.64,0,0,0,1.28.44,5.45,5.45,0,0,0,1.26.15,2,2,0,0,0,1.26-.33,1.06,1.06,0,0,0,.4-.88,1.09,1.09,0,0,0-.38-.83,5.62,5.62,0,0,0-1.55-.8,4.08,4.08,0,0,1-1.71-1.1,2.35,2.35,0,0,1-.51-1.5,2.11,2.11,0,0,1,.77-1.74,3.25,3.25,0,0,1,2.1-.65,6.19,6.19,0,0,1,2.52.54L63.11,232a5.51,5.51,0,0,0-2.1-.48,1.61,1.61,0,0,0-1.06.31,1,1,0,0,0-.36.81,1.13,1.13,0,0,0,.15.59,1.47,1.47,0,0,0,.48.46,8,8,0,0,0,1.2.56,6.57,6.57,0,0,1,1.43.74,2.22,2.22,0,0,1,.67.79A2.37,2.37,0,0,1,63.73,236.78Z"/><path d="M80,239.06l-2.61-7.34h0q.12,1.64.12,3.07l0,4.29H76.2l-.06-8.81h2l2.5,7h0l2.47-7,2,0,.06,8.81H83.88l0-4.36q0-.66,0-1.71t0-1.28h0L81.28,239Z"/><path d="M100.94,234.49a4.82,4.82,0,0,1-1.05,3.35,4.52,4.52,0,0,1-6.11.05,4.85,4.85,0,0,1-1.09-3.36,4.78,4.78,0,0,1,1.05-3.36A4,4,0,0,1,96.8,230a3.88,3.88,0,0,1,3,1.17A4.82,4.82,0,0,1,100.94,234.49Zm-6.73,0a4,4,0,0,0,.67,2.46,2.68,2.68,0,0,0,3.89,0,5,5,0,0,0,0-4.94,2.29,2.29,0,0,0-1.94-.82,2.34,2.34,0,0,0-2,.85A3.92,3.92,0,0,0,94.21,234.53Z"/><path d="M108.42,238.85l-.06-8.81h1.44l.06,8.81Z"/><path d="M125.09,238.73h-1.77l-4.39-7h0l0,.39q.09,1.12.1,2l0,4.58h-1.31l-.06-8.81h1.75l4.37,7h0c0-.09,0-.43-.06-1s0-1,0-1.36l0-4.62H125Z"/><path d="M138,238.63l-5,0-.06-8.81,5,0V231l-3.54,0,0,2.4,3.32,0v1.21l-3.32,0,0,2.77,3.54,0Z"/><path d="M150.48,236.15a2.22,2.22,0,0,1-.84,1.85,3.7,3.7,0,0,1-2.34.69,5.6,5.6,0,0,1-2.45-.45v-1.36a6.59,6.59,0,0,0,1.28.44,5.45,5.45,0,0,0,1.26.15,2,2,0,0,0,1.26-.33,1.06,1.06,0,0,0,.4-.88,1.09,1.09,0,0,0-.38-.83,5.63,5.63,0,0,0-1.55-.8,4.08,4.08,0,0,1-1.71-1.1,2.35,2.35,0,0,1-.51-1.5,2.11,2.11,0,0,1,.77-1.74,3.25,3.25,0,0,1,2.1-.65,6.17,6.17,0,0,1,2.52.54l-.45,1.18a5.52,5.52,0,0,0-2.1-.48,1.61,1.61,0,0,0-1.06.31,1,1,0,0,0-.36.81,1.12,1.12,0,0,0,.15.59,1.47,1.47,0,0,0,.48.46,7.87,7.87,0,0,0,1.2.56,6.57,6.57,0,0,1,1.43.74,2.21,2.21,0,0,1,.67.79A2.37,2.37,0,0,1,150.48,236.15Z"/><circle class="cls-1" cx="95.01" cy="133.95" r="51.12"/><path d="M107.6,176.55s.68-14.92-5.09-22.11-17.7-9.37-17.36-17.09c-1.43,9.3,9.86,16,13.49,19.52C102,160.16,106.83,164.68,107.6,176.55Z"/><path d="M116.48,129.61s.87-14.91,7.34-21.46,18.57-7.49,19-15.21c.46,9.4-11.46,14.89-15.44,18C123.71,113.88,118.47,117.87,116.48,129.61Z"/><path d="M108.16,195.64a563.23,563.23,0,0,0,3.4-61.83,525.28,525.28,0,0,0-2.63-54.37q-.17-1.69-.35-3.39c-.07-.62-1.89-5.31-2.75-5.21s-.9.62-.8,1.49a560.09,560.09,0,0,1,3.1,61.48,560.38,560.38,0,0,1-3.38,61.48c-.1.86.89,1.15,1.76,1.25S108.06,196.51,108.16,195.64Z"/><path d="M122.36,195.94c-.5-6.38-.75-11.34-.75-17.74s.25-11.36.75-17.74c.07-.89,1.76-3.35,2.66-3.28s.7,2.2.63,3.09c-.5,6.3-.5,11.62-.5,17.93s.25,11.19.74,17.49c.07.89-.89.7-1.78.77S122.43,196.84,122.36,195.94Z"/><rect x="115" width="3.16" height="196.57"/></g></g></svg>